<?xml version="1.0" encoding="UTF-8" standalone="no"?>
<!-- Created with Inkscape (http://www.inkscape.org/) -->
<svg xmlns:dc="http://purl.org/dc/elements/1.1/" xmlns:cc="http://creativecommons.org/ns#" xmlns:rdf="http://www.w3.org/1999/02/22-rdf-syntax-ns#" xmlns:svg="http://www.w3.org/2000/svg" xmlns="http://www.w3.org/2000/svg" xmlns:xlink="http://www.w3.org/1999/xlink" xmlns:inkscape="http://www.inkscape.org/namespaces/inkscape" version="1.0" width="256" height="256" id="svg790">
  <metadata id="metadata30">
    <rdf:RDF>
      <cc:Work rdf:about="">
        <dc:format>image/svg+xml</dc:format>
        <dc:type rdf:resource="http://purl.org/dc/dcmitype/StillImage"/>
      </cc:Work>
    </rdf:RDF>
  </metadata>
  <defs id="defs2426">
    <linearGradient x1="112.49854" y1="6.1372099" x2="112.49853" y2="129.3468" id="path1082_2_" gradientUnits="userSpaceOnUse" gradientTransform="translate(287,-83)">
      <stop id="stop193" style="stop-color:#ffffff;stop-opacity:0" offset="0"/>
      <stop id="stop195" style="stop-color:#ffffff;stop-opacity:0.27450982" offset="1"/>
      <midPointStop id="midPointStop197" style="stop-color:#FFFFFF" offset="0"/>
      <midPointStop id="midPointStop199" style="stop-color:#FFFFFF" offset="0.5"/>
      <midPointStop id="midPointStop201" style="stop-color:#000000" offset="1"/>
    </linearGradient>
    <linearGradient id="linearGradient9515">
      <stop id="stop9517" style="stop-color:#387eb8;stop-opacity:1" offset="0"/>
      <stop id="stop9519" style="stop-color:#366994;stop-opacity:1" offset="1"/>
    </linearGradient>
    <linearGradient id="linearGradient11301">
      <stop id="stop11303" style="stop-color:#ffe052;stop-opacity:1" offset="0"/>
      <stop id="stop11305" style="stop-color:#ffc331;stop-opacity:1" offset="1"/>
    </linearGradient>
    <linearGradient x1="541.33502" y1="104.50665" x2="606.91248" y2="303.14029" id="linearGradient5227" xlink:href="#path1082_2_" gradientUnits="userSpaceOnUse" gradientTransform="matrix(-0.6066055,0,0,0.6065715,581.83285,65.833783)"/>
    <linearGradient x1="55.549179" y1="77.070274" x2="110.14919" y2="131.85291" id="linearGradient5235" xlink:href="#linearGradient9515" gradientUnits="userSpaceOnUse" gradientTransform="translate(-40.169629,-12.31148)"/>
    <linearGradient x1="89.136749" y1="111.92053" x2="147.77737" y2="168.1012" id="linearGradient5237" xlink:href="#linearGradient11301" gradientUnits="userSpaceOnUse" gradientTransform="translate(-40.169629,-12.31148)"/>
  </defs>
  <g transform="translate(-57.51784,-56.601259)" id="layer1" style="display:inline">
    <path d="m 128,0 c -11.39483,27.937051 -18.31337,46.23717 -31,73.34375 7.44013,7.886544 16.65621,17.014902 31,27.28125 0.65231,0.46688 1.16928,0.90328 1.84375,1.375 C 129.17901,101.72646 128.64802,101.46108 128,101.1875 112.39741,94.600332 101.47132,87.986523 93.3125,81.125 77.07603,115.00488 51.62165,163.24639 0,256 c 49.025134,-28.30307 84.740199,-43.37941 119.4375,-45.53125 1.33101,-0.0825 2.67132,-0.26835 4,-0.3125 -17.63203,-1.5087 -16.15625,-11.21875 -16.15625,-11.21875 0,0 0,-7.45338 0,-18.84375 0,-11.39039 11.59375,-11.1875 11.59375,-11.1875 0,0 8.25269,0 20.625,0 12.37232,0 12.00001,-12.1875 12,-12.1875 l 0,-10.1875 7.25,0 c 0,0 12.1875,-0.77648 12.1875,21.21875 0,21.99524 -13.9375,20.40625 -13.9375,20.40625 l -29.09375,0 0,2.9375 20.8125,0 0.0312,9.78125 c 0,0 1.13274,8.02973 -15.78125,9.28125 C 168.83412,211.44559 205.30333,226.73189 256,256 c -7.89193,-14.52961 -14.96051,-27.61983 -21.6875,-40.09375 -10.5961,-8.21269 -21.64301,-18.89743 -44.1875,-30.46875 15.4958,4.02645 26.60184,8.6825 35.25,13.875 C 156.97985,71.972671 151.45422,55.040371 128,0 z m -0.3125,124.90625 c 22.78079,0 21.03124,11.40625 21.03125,11.40625 0,0 -1e-5,7.45336 0,18.84375 0,11.39039 -11.59375,11.18751 -11.59375,11.1875 0,0 -8.25268,1e-5 -20.625,0 -12.37232,0 -12,12.1875 -12,12.1875 l 0,10.1875 -7.25,0 c 0,0 -12.1875,0.80774 -12.1875,-21.1875 C 85.0625,145.53602 99,147.09376 99,147.09375 l 29.09375,0 0,-2.9375 -20.8125,0 -0.0312,-9.78125 c 0,0 -1.36134,-9.46875 20.4375,-9.46875 z M 116.21875,131.5 c -2.06966,0 -3.75,1.68034 -3.75,3.75 0,2.06966 1.68034,3.75001 3.75,3.75 2.06966,0 3.75,-1.68034 3.75,-3.75 0,-2.06966 -1.68034,-3.75 -3.75,-3.75 z m 23.5625,64.78125 c -2.06966,0 -3.74999,1.64908 -3.75,3.71875 0,2.06966 1.68034,3.75 3.75,3.75 2.06966,0 3.75001,-1.68035 3.75,-3.75 0,-2.06966 -1.68035,-3.71875 -3.75,-3.71875 z" inkscape:connector-curvature="0" transform="translate(57.51784,56.601259)" id="path5245" style="fill:#1793d1;fill-opacity:1;fill-rule:evenodd;stroke:none"/>
    <path d="m 185.98659,57.695009 c -1.42338,3.499183 -2.81007,6.894756 -4.125,10.125 -1.45671,3.578408 -2.84196,6.99457 -4.21875,10.34375 -1.37667,3.349221 -2.74109,6.617678 -4.09375,9.84375 -1.35275,3.226219 -2.70913,6.415755 -4.09375,9.625 -1.38453,3.209121 -2.77769,6.451801 -4.25,9.750001 -1.47231,3.2983 -3.00915,6.6628 -4.625,10.15625 -1.61599,3.49349 -3.3097,7.11161 -5.125,10.90625 -0.25144,0.52558 -0.55662,1.12373 -0.8125,1.65625 7.75455,8.21322 17.30152,17.71724 32.71875,28.5 -16.62707,-6.84195 -27.9782,-13.68579 -36.46875,-20.8125 -0.44082,0.89993 -0.8271,1.7035 -1.28125,2.625 -0.59775,1.21296 -1.31546,2.59119 -1.9375,3.84375 -0.31542,0.64673 -0.64651,1.34249 -0.96875,2 -8.03188,16.38875 -18.34295,36.42086 -32.21875,62.375 32.4656,-18.29162 67.48339,-44.68199 131.09375,-21.96875 -3.18932,-6.0405 -6.12134,-11.70535 -8.875,-17.03125 -2.75362,-5.32607 -5.31196,-10.31478 -7.6875,-15.03125 -2.37536,-4.71637 -4.57043,-9.16304 -6.625,-13.375 -2.05455,-4.21186 -3.959,-8.18727 -5.75,-12 -1.7911,-3.81264 -3.47764,-7.48144 -5.0625,-11 -1.58496,-3.51852 -3.09501,-6.88931 -4.53125,-10.21875 -1.43639,-3.32962 -2.81139,-6.59831 -4.15625,-9.843751 -1.34499,-3.245541 -2.65791,-6.483239 -3.96875,-9.75 -0.33293,-0.829513 -0.66696,-1.696124 -1,-2.53125 -3.72832,-8.739675 -7.50706,-17.78017 -11.9375,-28.1875 z" inkscape:connector-curvature="0" id="path2520" style="fill:url(#linearGradient5227);fill-opacity:1;fill-rule:evenodd;stroke:none;display:inline"/>
    <path d="M 257.5696,208.75902 C 202.08304,133.44776 189.22185,72.749173 185.96416,58.257768 215.5623,126.52704 215.36013,127.36422 257.5696,208.75902 z" inkscape:connector-curvature="0" id="path2522" style="fill:#ffffff;fill-opacity:0.16568047;fill-rule:evenodd;stroke:none"/>
  </g>
  <g id="layer3" style="display:none">
    <g transform="matrix(0.8746356,0,0,0.8746356,75.540738,83.057389)" id="g5210">
      <path d="m 59.580371,55.15727 c -28.031732,2e-6 -26.28125,12.15625 -26.28125,12.15625 l 0.03125,12.59375 26.75,0 0,3.78125 -37.375,0 c 0,0 -17.9375,-2.034276 -17.9375,26.25 -2e-6,28.28427 15.65625,27.28125 15.65625,27.28125 l 9.34375,0 0,-13.125 c 0,0 -0.503652,-15.65625 15.40625,-15.65625 15.9099,0 26.53125,0 26.53125,0 0,0 14.90625,0.24096 14.90625,-14.40625 0,-14.647206 0,-24.21875 0,-24.21875 0,-2e-6 2.26318,-14.65625 -27.03125,-14.65625 z m -14.75,8.46875 c 2.661429,-2e-6 4.8125,2.151071 4.8125,4.8125 2e-6,2.661429 -2.151071,4.8125 -4.8125,4.8125 -2.661429,2e-6 -4.8125,-2.151071 -4.8125,-4.8125 -2e-6,-2.661429 2.151071,-4.8125 4.8125,-4.8125 z" inkscape:connector-curvature="0" id="path8615" style="fill:url(#linearGradient5235);fill-opacity:1;fill-rule:nonzero;stroke:none;stroke-width:1;marker:none;visibility:visible;display:inline;overflow:visible"/>
      <path d="m 60.376471,165.00337 c 28.03174,0 26.28125,-12.15625 26.28125,-12.15625 l -0.03125,-12.59375 -26.75,0 0,-3.78125 37.375,0 c 0,0 17.937499,2.03427 17.937499,-26.25001 1e-5,-28.284267 -15.656249,-27.281247 -15.656249,-27.281247 l -9.34375,0 0,13.124997 c 0,0 0.50366,15.65625 -15.40625,15.65625 -15.909902,0 -26.531252,0 -26.531252,0 0,0 -14.90625,-0.24096 -14.90625,14.40626 0,14.6472 0,24.21875 0,24.21875 0,0 -2.26318,14.65625 27.031252,14.65625 z m 14.75,-8.46875 c -2.66143,0 -4.8125,-2.15107 -4.8125,-4.8125 0,-2.66143 2.15107,-4.8125 4.8125,-4.8125 2.66143,0 4.8125,2.15107 4.8125,4.8125 1e-5,2.66143 -2.15107,4.8125 -4.8125,4.8125 z" inkscape:connector-curvature="0" id="path8620" style="fill:url(#linearGradient5237);fill-opacity:1;fill-rule:nonzero;stroke:none;stroke-width:1;marker:none;visibility:visible;display:inline;overflow:visible"/>
    </g>
  </g>
  <g id="layer4" style="display:none"/>
</svg>