<?xml version="1.0" encoding="UTF-8" standalone="no"?>
<!-- Created with Inkscape (http://www.inkscape.org/) -->
<svg xmlns:dc="http://purl.org/dc/elements/1.1/" xmlns:cc="http://creativecommons.org/ns#" xmlns:rdf="http://www.w3.org/1999/02/22-rdf-syntax-ns#" xmlns:svg="http://www.w3.org/2000/svg" xmlns="http://www.w3.org/2000/svg" xmlns:xlink="http://www.w3.org/1999/xlink" xmlns:inkscape="http://www.inkscape.org/namespaces/inkscape" version="1.0" width="256" height="256" id="svg2">
  <metadata id="metadata28">
    <rdf:RDF>
      <cc:Work rdf:about="">
        <dc:format>image/svg+xml</dc:format>
        <dc:type rdf:resource="http://purl.org/dc/dcmitype/StillImage"/>
      </cc:Work>
    </rdf:RDF>
  </metadata>
  <defs id="defs2426">
    <linearGradient x1="112.49854" y1="6.1372099" x2="112.49853" y2="129.3468" id="path1082_2_" gradientUnits="userSpaceOnUse" gradientTransform="translate(287,-83)">
      <stop id="stop193" style="stop-color:#ffffff;stop-opacity:0" offset="0"/>
      <stop id="stop195" style="stop-color:#ffffff;stop-opacity:0.27450982" offset="1"/>
      <midPointStop id="midPointStop197" style="stop-color:#FFFFFF" offset="0"/>
      <midPointStop id="midPointStop199" style="stop-color:#FFFFFF" offset="0.5"/>
      <midPointStop id="midPointStop201" style="stop-color:#000000" offset="1"/>
    </linearGradient>
    <linearGradient x1="541.33502" y1="104.50665" x2="606.91248" y2="303.14029" id="linearGradient3378" xlink:href="#path1082_2_" gradientUnits="userSpaceOnUse" gradientTransform="matrix(-0.6066055,0,0,0.6065715,581.83285,65.833783)"/>
  </defs>
  <g transform="translate(-57.51784,-56.601259)" id="layer1">
    <path d="M 128,0 C 116.60517,27.937051 109.68664,46.23717 97,73.34375 104.7785,81.58896 114.33826,91.1555 129.84375,102 113.17382,95.140422 101.81018,88.27149 93.3125,81.125 77.07603,115.00488 51.62165,163.24639 0,256 42.351064,231.54999 74.774873,216.87038 105.1875,211.9375 l -32.90625,0 c -1.647874,0 -3.073119,-0.9064 -3.8125,-2.25 -1.360687,-0.73436 -2.28125,-2.1832 -2.28125,-3.84375 l 0,-34.8125 c -2e-6,-2.41153 1.932225,-4.34375 4.34375,-4.34375 l 113.1875,0 c 1.64787,0 3.07312,0.9064 3.8125,2.25 1.36069,0.73436 2.28125,2.1832 2.28125,3.84375 l 0,34.8125 c 1e-5,2.41153 -1.93223,4.34375 -4.34375,4.34375 l -34.75,0 C 181.17406,216.85476 213.61851,231.5324 256,256 c -7.89193,-14.52961 -14.96051,-27.61983 -21.6875,-40.09375 -10.5961,-8.21269 -21.64301,-18.89742 -44.1875,-30.46875 15.49581,4.02646 26.60184,8.6825 35.25,13.875 C 156.97985,71.972663 151.45422,55.040376 128,0 z m 59.75,169.40625 c 0.0973,0.24137 0.16564,0.48914 0.21875,0.75 -0.0509,-0.25173 -0.12592,-0.5163 -0.21875,-0.75 z m 0.21875,0.75 c 0.0578,0.28388 0.0937,0.57356 0.0937,0.875 0,-0.30367 -0.0363,-0.5909 -0.0937,-0.875 z M 69.75,210.125 c 0.25102,0.047 0.515332,0.0937 0.78125,0.0937 -0.26951,0 -0.525538,-0.0473 -0.78125,-0.0937 z m 40.59375,1.0625 c -0.66545,0.0838 -1.33308,0.18789 -2,0.28125 0.66669,-0.0938 1.33491,-0.19693 2,-0.28125 z" inkscape:connector-curvature="0" transform="translate(57.51784,56.601259)" id="path2518" style="fill:#c00000;fill-opacity:1;fill-rule:evenodd;stroke:none"/>
    <path d="M 257.5696,208.75902 C 202.08304,133.44776 189.22185,72.749173 185.96416,58.257768 215.5623,126.52704 215.36013,127.36422 257.5696,208.75902 z" inkscape:connector-curvature="0" id="path2522" style="fill:#ffffff;fill-opacity:0.16568047;fill-rule:evenodd;stroke:none"/>
    <path d="m 185.98659,57.695009 c -1.42338,3.499183 -2.81007,6.894756 -4.125,10.125 -1.45671,3.578408 -2.84196,6.99457 -4.21875,10.34375 -1.37667,3.349221 -2.74109,6.617678 -4.09375,9.84375 -1.35275,3.226219 -2.70913,6.415755 -4.09375,9.625 -1.38453,3.209121 -2.77769,6.451801 -4.25,9.750001 -1.47231,3.2983 -3.00915,6.6628 -4.625,10.15625 -1.61599,3.49349 -3.3097,7.11161 -5.125,10.90625 -0.25144,0.52558 -0.55662,1.12373 -0.8125,1.65625 7.75455,8.21322 17.30152,17.71724 32.71875,28.5 -16.62707,-6.84195 -27.9782,-13.68579 -36.46875,-20.8125 -0.44082,0.89993 -0.8271,1.7035 -1.28125,2.625 -0.59775,1.21296 -1.31546,2.59119 -1.9375,3.84375 -0.31542,0.64673 -0.64651,1.34249 -0.96875,2 -8.03188,16.38875 -18.34295,36.42086 -32.21875,62.375 32.4656,-18.29162 67.48339,-44.68199 131.09375,-21.96875 -3.18932,-6.0405 -6.12134,-11.70535 -8.875,-17.03125 -2.75362,-5.32607 -5.31196,-10.31478 -7.6875,-15.03125 -2.37536,-4.71637 -4.57043,-9.16304 -6.625,-13.375 -2.05455,-4.21186 -3.959,-8.18727 -5.75,-12 -1.7911,-3.81264 -3.47764,-7.48144 -5.0625,-11 -1.58496,-3.51852 -3.09501,-6.88931 -4.53125,-10.21875 -1.43639,-3.32962 -2.81139,-6.59831 -4.15625,-9.843751 -1.34499,-3.245541 -2.65791,-6.483239 -3.96875,-9.75 -0.33293,-0.829513 -0.66696,-1.696124 -1,-2.53125 -3.72832,-8.739675 -7.50706,-17.78017 -11.9375,-28.1875 z" inkscape:connector-curvature="0" id="path2520" style="fill:url(#linearGradient3378);fill-opacity:1;fill-rule:evenodd;stroke:none"/>
    <path d="m 187.53125,168.9375 c 0.34264,0.62264 0.53125,1.3301 0.53125,2.09375 l 0,34.8125 c 1e-5,2.41153 -1.93223,4.375 -4.34375,4.375 l -49.34375,0 c 5.41858,0.24973 10.84254,0.83054 16.34375,1.71875 l 34.75,0 c 2.41152,0 4.34376,-1.93222 4.34375,-4.34375 l 0,-34.8125 c 0,-1.66055 -0.92056,-3.10939 -2.28125,-3.84375 z m -119.0625,40.75 c 0.739381,1.3436 2.164626,2.25 3.8125,2.25 l 32.90625,0 c 5.55844,-0.90157 11.05916,-1.46852 16.53125,-1.71875 l -51.1875,0 c -0.750971,0 -1.447141,-0.19914 -2.0625,-0.53125 z" inkscape:connector-curvature="0" transform="translate(57.51784,56.601259)" id="shadow" style="fill:#c00000;fill-opacity:0.50196078"/>
    <rect width="10.447039" height="3.4823463" x="135.89441" y="237.20511" id="minus" style="fill:#c00000"/>
    <use transform="translate(13.929385,0)" id="use2397" x="0" y="0" width="256" height="256" xlink:href="#minus"/>
    <use transform="translate(27.85877,0)" id="use2399" x="0" y="0" width="256" height="256" xlink:href="#minus"/>
    <path d="m 139.37675,245.91097 0,3.48235 -3.48235,0 0,3.48234 3.48235,0 0,3.48235 3.48234,0 0,-3.48235 3.48235,0 0,-3.48234 -3.48235,0 0,-3.48235 -3.48234,0 z" inkscape:connector-curvature="0" id="plus" style="fill:#008000"/>
    <use transform="translate(13.929385,0)" id="use2402" x="0" y="0" width="256" height="256" xlink:href="#plus"/>
    <use transform="translate(27.85877,0)" id="use2404" x="0" y="0" width="256" height="256" xlink:href="#plus"/>
    <g transform="matrix(1.7411731,0,0,1.7411731,123.70619,223.27572)" id="git" style="fill:#008000">
      <path d="m 38,11 0,1 -1,0 0,4 1,0 0,1 3,0 0,1 -3,0 0,1 5,0 0,-1 1,0 0,-1 0,-1 0,-1 0,-3 0,-1 -6,0 z m 2,1 1,0 0,4 -1,0 0,-4 z" inkscape:connector-curvature="0" id="g"/>
      <path d="m 47,8 0,2 3,0 0,-2 -3,0 z m -2,3 0,1 2,0 0,4 -2,0 0,1 7,0 0,-1 -2,0 0,-4 0,-1 -5,0 z" inkscape:connector-curvature="0" id="i"/>
      <path d="m 54,9 0,2 -2,0 0,1 2,0 0,4 0,1 5,0 0,-1 -2,0 0,-4 2,0 0,-1 -2,0 0,-2 -3,0 z" inkscape:connector-curvature="0" id="t"/>
    </g>
  </g>
</svg>